<svg version="1.1" id="Layer_1" xmlns="http://www.w3.org/2000/svg" xmlns:xlink="http://www.w3.org/1999/xlink" x="0px" y="0px"
	 width="100%" viewBox="0 0 400 200" enable-background="new 0 0 400 200" xml:space="preserve">
<path fill="#D90012" opacity="1.000000" stroke="none" 
	d="
M1.000000,68.000000 
	C1.000000,45.684975 1.000000,23.369951 1.000004,1.056649 
	C134.333344,1.058371 267.666687,1.058371 401.000000,1.058371 
	C401.000000,23.098722 401.000000,45.080704 400.535828,67.461548 
	C268.043091,67.849251 136.014557,67.837692 3.986004,67.834061 
	C2.990671,67.834038 1.995335,67.942299 1.000000,68.000000 
z"/>
<path fill="#0033A0" opacity="1.000000" stroke="none" 
	d="
M1.000000,68.468658 
	C1.995335,67.942299 2.990671,67.834038 3.986004,67.834061 
	C136.014557,67.837692 268.043091,67.849251 400.535828,67.930206 
	C401.000000,89.687561 401.000000,111.375122 400.552917,133.670929 
	C399.606720,134.297989 399.107635,134.333221 398.608521,134.333237 
	C267.389648,134.337631 136.170792,134.340622 4.951936,134.327484 
	C3.634613,134.327362 2.317311,134.113876 1.000000,134.000000 
	C1.000000,112.312439 1.000000,90.624878 1.000000,68.468658 
z"/>
<path fill="#F2A800" opacity="1.000000" stroke="none" 
	d="
M401.000000,136.000000 
	C401.000000,157.648773 401.000000,179.297531 401.000000,200.944275 
	C267.666656,200.942261 134.333313,200.942261 1.000000,200.942261 
	C1.000000,179.568771 1.000000,158.253052 1.465013,136.468658 
	C134.953354,136.000000 267.976685,136.000000 401.000000,136.000000 
z"/>
<path fill="#FFAE00" opacity="1.000000" stroke="none" 
	d="
M401.000000,135.666656 
	C267.976685,136.000000 134.953354,136.000000 1.465013,136.000000 
	C1.000000,135.555557 1.000000,135.111115 1.000000,134.333344 
	C2.317311,134.113876 3.634613,134.327362 4.951936,134.327484 
	C136.170792,134.340622 267.389648,134.337631 398.608521,134.333237 
	C399.107635,134.333221 399.606720,134.297989 400.552917,134.139587 
	C401.000000,134.444443 401.000000,134.888885 401.000000,135.666656 
z"/>
</svg>