<svg version="1.1" id="Layer_1" xmlns="http://www.w3.org/2000/svg" xmlns:xlink="http://www.w3.org/1999/xlink" x="0px" y="0px"
	 width="100%" viewBox="0 0 2560 1280" enable-background="new 0 0 2560 1280" xml:space="preserve">
<path fill="#C8102E" opacity="1.000000" stroke="none" 
	d="
M1409.000000,1281.000000 
	C1323.979126,1281.000000 1238.958130,1281.000000 1153.468750,1280.531372 
	C1153.000244,1109.801514 1153.000244,939.540161 1153.000244,769.000000 
	C768.602356,769.000000 384.801178,769.000000 1.000000,769.000000 
	C1.000000,683.979126 1.000000,598.958191 1.468657,513.468811 
	C385.529205,513.000305 769.121094,513.000305 1153.000000,513.000305 
	C1153.000000,341.940857 1153.000000,171.470428 1153.000000,1.000000 
	C1238.020874,1.000000 1323.041870,1.000000 1408.531250,1.468657 
	C1408.999756,172.198532 1408.999756,342.459747 1408.999756,513.000000 
	C1793.397705,513.000000 2177.198730,513.000000 2561.000000,513.000000 
	C2561.000000,598.020874 2561.000000,683.041809 2560.531250,768.531189 
	C2176.470703,768.999695 1792.878906,768.999695 1409.000000,768.999695 
	C1409.000000,940.059204 1409.000000,1110.529541 1409.000000,1281.000000 
z"/>
<path fill="#FFFFFF" opacity="1.000000" stroke="none" 
	d="
M1152.531372,1.000000 
	C1153.000000,171.470428 1153.000000,341.940857 1153.000000,513.000305 
	C769.121094,513.000305 385.529205,513.000305 1.468657,513.000122 
	C1.000000,484.979095 1.000000,456.958221 1.452075,428.360352 
	C187.725952,427.772736 373.547760,427.762421 559.369568,427.747925 
	C561.535095,427.747742 563.700562,427.694122 566.109070,427.788818 
	C566.626770,427.723450 566.901428,427.534729 567.176147,427.346008 
	C566.774231,427.243530 566.372314,427.141022 565.813477,426.734619 
	C379.082184,333.147400 192.508713,239.862457 5.918927,146.610138 
	C4.392344,145.847198 2.644527,145.526947 1.000000,145.000000 
	C1.000000,129.312439 1.000000,113.624878 1.364523,97.420815 
	C2.338312,97.168449 2.961730,97.404282 3.554831,97.700760 
	C56.201733,124.017189 108.845551,150.339783 161.491165,176.658768 
	C327.161285,259.481781 492.829132,342.309387 658.528992,425.072845 
	C661.132812,426.373383 664.132202,427.638458 666.949463,427.643799 
	C728.588867,427.760925 790.228638,427.696899 852.120178,427.783875 
	C852.668945,427.720520 852.965881,427.540894 853.262756,427.361206 
	C852.869263,427.209564 852.475708,427.057922 851.895569,426.619019 
	C576.401428,288.673035 301.092346,151.017395 25.794165,13.340028 
	C17.804035,9.344143 9.928804,5.118509 2.000000,1.000000 
	C97.020897,1.000000 192.041794,1.000000 287.618256,1.347525 
	C290.142578,2.583174 292.144989,3.403896 294.075195,4.369115 
	C388.899445,51.786999 483.710632,99.230949 578.537720,146.643143 
	C739.746155,227.245071 900.963928,307.828156 1062.180298,388.414276 
	C1063.895386,389.271576 1065.643433,390.063110 1067.749756,391.062653 
	C1067.749756,388.348572 1067.749756,386.354767 1067.749756,384.360992 
	C1067.749756,258.564789 1067.748535,132.768616 1067.760132,6.972425 
	C1067.760254,4.981610 1067.916626,2.990808 1068.000000,1.000000 
	C1096.020874,1.000000 1124.041870,1.000000 1152.531372,1.000000 
z"/>
<path fill="#FFFFFF" opacity="1.000000" stroke="none" 
	d="
M1409.468628,1281.000000 
	C1409.000000,1110.529541 1409.000000,940.059204 1409.000000,768.999695 
	C1792.878906,768.999695 2176.470703,768.999695 2560.531250,768.999878 
	C2561.000000,797.020874 2561.000000,825.041809 2560.547852,853.639526 
	C2374.441162,854.227112 2188.786133,854.237610 2003.131226,854.252319 
	C2000.799072,854.252502 1998.466919,854.306885 1995.902344,854.213379 
	C1995.414551,854.283142 1995.159058,854.475464 1994.903687,854.667847 
	C1995.291748,854.747498 1995.679688,854.827148 1996.227661,855.208679 
	C2183.243164,948.960999 2370.098145,1042.412842 2556.969238,1135.832642 
	C2558.199707,1136.447754 2559.651611,1136.620605 2561.000000,1137.000000 
	C2561.000000,1152.687622 2561.000000,1168.375122 2560.635986,1184.576416 
	C2493.825684,1151.905151 2427.370117,1118.739258 2360.935303,1085.531006 
	C2208.445557,1009.307373 2055.969238,933.056580 1903.455200,856.881775 
	C1900.856689,855.583862 1897.850464,854.358093 1895.032227,854.352844 
	C1833.399170,854.238708 1771.765747,854.302612 1709.885132,854.216980 
	C1709.352661,854.283508 1709.067505,854.465454 1708.782227,854.647400 
	C1709.174316,854.781311 1709.566406,854.915283 1710.135132,855.341309 
	C1991.717529,996.349304 2273.123535,1137.064575 2554.520996,1277.797119 
	C2556.409180,1278.741333 2558.176270,1279.927124 2560.000000,1281.000000 
	C2464.979248,1281.000000 2369.958252,1281.000000 2274.286621,1280.704346 
	C2013.991455,1150.589478 1754.347290,1020.770081 1494.250366,890.724365 
	C1494.250366,893.624451 1494.250244,895.621155 1494.250244,897.617798 
	C1494.250244,1023.420959 1494.251465,1149.224121 1494.239868,1275.027222 
	C1494.239746,1277.018188 1494.083374,1279.009033 1494.000000,1281.000000 
	C1465.979126,1281.000000 1437.958130,1281.000000 1409.468628,1281.000000 
z"/>
<path fill="#FFFFFF" opacity="1.000000" stroke="none" 
	d="
M2561.000000,512.531372 
	C2177.198730,513.000000 1793.397705,513.000000 1408.999756,513.000000 
	C1408.999756,342.459747 1408.999756,172.198532 1408.999878,1.468657 
	C1437.020874,1.000000 1465.041870,1.000000 1493.639893,1.457671 
	C1494.217163,131.465759 1494.217163,261.016174 1494.217163,391.184326 
	C1496.735352,389.961426 1498.509766,389.121643 1500.265503,388.243958 
	C1743.258545,266.774414 1986.253296,145.308578 2229.233887,23.814394 
	C2244.213379,16.324415 2259.080566,8.609984 2274.000000,1.000005 
	C2305.354248,1.000000 2336.708252,1.000000 2368.431152,1.333115 
	C2367.911865,2.121200 2367.027588,2.583816 2366.135010,3.030067 
	C2085.452881,143.371216 1804.770142,283.710571 1524.095825,424.066956 
	C1522.348999,424.940491 1520.719727,426.049500 1518.781494,427.005951 
	C1518.339844,427.208496 1518.152222,427.453644 1517.964600,427.698792 
	C1518.357056,427.685760 1518.749268,427.672729 1519.589600,427.699066 
	C1580.361206,427.732941 1640.685059,427.790436 1701.008057,427.588043 
	C1705.291138,427.573669 1709.953247,426.420105 1713.792725,424.502441 
	C1994.390015,284.359009 2274.922363,144.085220 2555.449951,3.802434 
	C2557.036865,3.008847 2558.486328,1.940233 2560.000000,1.000020 
	C2560.333496,2.328269 2560.956543,3.656244 2560.958008,4.984892 
	C2561.008301,51.344131 2561.000000,97.703415 2560.656738,144.330154 
	C2559.704102,144.863083 2559.081055,145.101013 2558.487305,145.397903 
	C2372.099365,238.591064 2185.713135,331.787384 1999.335449,425.001007 
	C1998.184326,425.576782 1997.152954,426.391785 1995.812012,427.029236 
	C1995.357178,427.207458 1995.156128,427.451447 1994.955078,427.695496 
	C1995.350708,427.684998 1995.746460,427.674530 1996.592407,427.701172 
	C2182.870605,427.742615 2368.698242,427.746155 2554.526123,427.761597 
	C2556.684082,427.761780 2558.842041,427.917084 2561.000000,428.000000 
	C2561.000000,456.020905 2561.000000,484.041779 2561.000000,512.531372 
z"/>
<path fill="#FFFFFF" opacity="1.000000" stroke="none" 
	d="
M1.000000,769.468628 
	C384.801178,769.000000 768.602356,769.000000 1153.000244,769.000000 
	C1153.000244,939.540161 1153.000244,1109.801514 1153.000122,1280.531372 
	C1124.979126,1281.000000 1096.958130,1281.000000 1068.360107,1280.542236 
	C1067.782959,1150.554321 1067.782959,1021.024109 1067.782959,890.875854 
	C1065.289917,892.081421 1063.513428,892.915527 1061.758423,893.792847 
	C821.391479,1013.951355 581.022827,1134.106445 340.667633,1254.288452 
	C323.061523,1263.091797 305.553589,1272.091553 288.000000,1281.000000 
	C256.645782,1281.000000 225.291550,1281.000000 193.572815,1280.668823 
	C464.377380,1144.756958 735.548889,1009.181091 1006.707886,873.580383 
	C1018.862732,867.501953 1030.905151,861.198730 1043.265747,855.028259 
	C1043.719360,854.799316 1043.907349,854.542358 1044.095215,854.285400 
	C1043.684204,854.301331 1043.273071,854.317322 1042.415527,854.294800 
	C981.315308,854.265015 920.661316,854.227112 860.007935,854.397888 
	C856.360779,854.408203 852.396118,855.437744 849.119507,857.074585 
	C568.088196,997.462708 287.109955,1137.956909 6.136623,1278.461060 
	C4.695041,1279.182007 3.376138,1280.148193 1.999980,1281.000000 
	C1.666664,1279.671753 1.043380,1278.343750 1.041940,1277.015137 
	C0.991690,1230.655884 1.000000,1184.296509 1.343788,1137.669678 
	C2.901467,1136.862549 4.139000,1136.370117 5.325903,1135.776611 
	C190.969376,1042.939575 376.609589,950.096191 562.242188,857.237488 
	C563.540039,856.588257 564.730591,855.724365 566.238892,855.005615 
	C566.705933,854.795654 566.905396,854.540894 567.104919,854.286194 
	C566.689758,854.302307 566.274597,854.318420 565.408936,854.297729 
	C379.130249,854.256958 193.302032,854.253723 7.473795,854.238525 
	C5.315857,854.238342 3.157931,854.082947 1.000000,854.000000 
	C1.000000,825.979126 1.000000,797.958191 1.000000,769.468628 
z"/>
<path fill="#012169" opacity="1.000000" stroke="none" 
	d="
M1067.531372,1.000000 
	C1067.916626,2.990808 1067.760254,4.981610 1067.760132,6.972425 
	C1067.748535,132.768616 1067.749756,258.564789 1067.749756,384.360992 
	C1067.749756,386.354767 1067.749756,388.348572 1067.749756,391.062653 
	C1065.643433,390.063110 1063.895386,389.271576 1062.180298,388.414276 
	C900.963928,307.828156 739.746155,227.245071 578.537720,146.643143 
	C483.710632,99.230949 388.899445,51.786999 294.075195,4.369115 
	C292.144989,3.403896 290.142578,2.583174 288.086914,1.347525 
	C547.687561,1.000000 807.375183,1.000000 1067.531372,1.000000 
z"/>
<path fill="#012169" opacity="1.000000" stroke="none" 
	d="
M2273.531250,1.000005 
	C2259.080566,8.609984 2244.213379,16.324415 2229.233887,23.814394 
	C1986.253296,145.308578 1743.258545,266.774414 1500.265503,388.243958 
	C1498.509766,389.121643 1496.735352,389.961426 1494.217163,391.184326 
	C1494.217163,261.016174 1494.217163,131.465759 1494.108643,1.457671 
	C1753.687500,1.000000 2013.375000,1.000000 2273.531250,1.000005 
z"/>
<path fill="#012169" opacity="1.000000" stroke="none" 
	d="
M288.468658,1281.000000 
	C305.553589,1272.091553 323.061523,1263.091797 340.667633,1254.288452 
	C581.022827,1134.106445 821.391479,1013.951355 1061.758423,893.792847 
	C1063.513428,892.915527 1065.289917,892.081421 1067.782959,890.875854 
	C1067.782959,1021.024109 1067.782959,1150.554321 1067.891479,1280.542236 
	C808.312439,1281.000000 548.624878,1281.000000 288.468658,1281.000000 
z"/>
<path fill="#012169" opacity="1.000000" stroke="none" 
	d="
M1494.468628,1281.000000 
	C1494.083374,1279.009033 1494.239746,1277.018188 1494.239868,1275.027222 
	C1494.251465,1149.224121 1494.250244,1023.420959 1494.250244,897.617798 
	C1494.250244,895.621155 1494.250366,893.624451 1494.250366,890.724365 
	C1754.347290,1020.770081 2013.991455,1150.589478 2273.817871,1280.704346 
	C2014.312378,1281.000000 1754.624878,1281.000000 1494.468628,1281.000000 
z"/>
<path fill="#C8112F" opacity="1.000000" stroke="none" 
	d="
M1043.000000,855.000244 
	C1030.905151,861.198730 1018.862732,867.501953 1006.707886,873.580383 
	C735.548889,1009.181091 464.377380,1144.756958 193.104156,1280.668823 
	C129.639801,1281.000000 66.279610,1281.000000 2.459687,1281.000000 
	C3.376138,1280.148193 4.695041,1279.182007 6.136623,1278.461060 
	C287.109955,1137.956909 568.088196,997.462708 849.119507,857.074585 
	C852.396118,855.437744 856.360779,854.408203 860.007935,854.397888 
	C920.661316,854.227112 981.315308,854.265015 1042.365234,854.479065 
	C1042.761353,854.701843 1043.000000,855.000244 1043.000000,855.000244 
z"/>
<path fill="#C8112F" opacity="1.000000" stroke="none" 
	d="
M2559.538818,1.000031 
	C2558.486328,1.940233 2557.036865,3.008847 2555.449951,3.802434 
	C2274.922363,144.085220 1994.390015,284.359009 1713.792725,424.502441 
	C1709.953247,426.420105 1705.291138,427.573669 1701.008057,427.588043 
	C1640.685059,427.790436 1580.361206,427.732941 1519.650635,427.531128 
	C1519.263672,427.323761 1519.035645,427.048523 1519.035645,427.048523 
	C1520.719727,426.049500 1522.348999,424.940491 1524.095825,424.066956 
	C1804.770142,283.710571 2085.452881,143.371216 2366.135010,3.030067 
	C2367.027588,2.583816 2367.911865,2.121200 2368.899902,1.333115 
	C2432.359131,1.000000 2495.718506,1.000000 2559.538818,1.000031 
z"/>
<path fill="#012169" opacity="1.000000" stroke="none" 
	d="
M1996.065552,427.095001 
	C1997.152954,426.391785 1998.184326,425.576782 1999.335449,425.001007 
	C2185.713135,331.787384 2372.099365,238.591064 2558.487305,145.397903 
	C2559.081055,145.101013 2559.704102,144.863083 2560.656738,144.798813 
	C2561.000000,239.024902 2561.000000,333.049805 2561.000000,427.537354 
	C2558.842041,427.917084 2556.684082,427.761780 2554.526123,427.761597 
	C2368.698242,427.746155 2182.870605,427.742615 1996.688721,427.543365 
	C1996.334717,427.348450 1996.065552,427.095001 1996.065552,427.095001 
z"/>
<path fill="#012169" opacity="1.000000" stroke="none" 
	d="
M2561.000000,1136.537354 
	C2559.651611,1136.620605 2558.199707,1136.447754 2556.969238,1135.832642 
	C2370.098145,1042.412842 2183.243164,948.960999 1996.360352,855.079590 
	C1996.333252,854.648560 1996.134766,854.335938 1996.134766,854.335938 
	C1998.466919,854.306885 2000.799072,854.252502 2003.131226,854.252319 
	C2188.786133,854.237610 2374.441162,854.227112 2560.547852,854.108154 
	C2561.000000,948.024902 2561.000000,1042.049805 2561.000000,1136.537354 
z"/>
<path fill="#012169" opacity="1.000000" stroke="none" 
	d="
M1.000000,145.462631 
	C2.644527,145.526947 4.392344,145.847198 5.918927,146.610138 
	C192.508713,239.862457 379.082184,333.147400 565.673462,426.872375 
	C565.690430,427.314087 565.866089,427.665497 565.866089,427.665497 
	C563.700562,427.694122 561.535095,427.747742 559.369568,427.747925 
	C373.547760,427.762421 187.725952,427.772736 1.452075,427.891663 
	C1.000000,333.975098 1.000000,239.950180 1.000000,145.462631 
z"/>
<path fill="#012169" opacity="1.000000" stroke="none" 
	d="
M1.000000,854.462646 
	C3.157931,854.082947 5.315857,854.238342 7.473795,854.238525 
	C193.302032,854.253723 379.130249,854.256958 565.323669,854.474487 
	C565.688843,854.687988 565.971191,854.960693 565.971191,854.960693 
	C564.730591,855.724365 563.540039,856.588257 562.242188,857.237488 
	C376.609589,950.096191 190.969376,1042.939575 5.325903,1135.776611 
	C4.139000,1136.370117 2.901467,1136.862549 1.343788,1137.201050 
	C1.000000,1042.975098 1.000000,948.950195 1.000000,854.462646 
z"/>
<path fill="#C8112F" opacity="1.000000" stroke="none" 
	d="
M2560.500000,1281.000000 
	C2558.176270,1279.927124 2556.409180,1278.741333 2554.520996,1277.797119 
	C2273.123535,1137.064575 1991.717529,996.349304 1710.262939,855.182495 
	C1710.213989,854.731689 1710.132324,854.332336 1710.132324,854.332336 
	C1771.765747,854.302612 1833.399170,854.238708 1895.032227,854.352844 
	C1897.850464,854.358093 1900.856689,855.583862 1903.455200,856.881775 
	C2055.969238,933.056580 2208.445557,1009.307373 2360.935303,1085.531006 
	C2427.370117,1118.739258 2493.825684,1151.905151 2560.635986,1185.045166 
	C2561.000000,1217.000000 2561.000000,1249.000000 2560.500000,1281.000000 
z"/>
<path fill="#C8112F" opacity="1.000000" stroke="none" 
	d="
M1.500000,1.000000 
	C9.928804,5.118509 17.804035,9.344143 25.794165,13.340028 
	C301.092346,151.017395 576.401428,288.673035 851.759521,426.786163 
	C851.810059,427.240540 851.868286,427.667603 851.868286,427.667603 
	C790.228638,427.696899 728.588867,427.760925 666.949463,427.643799 
	C664.132202,427.638458 661.132812,426.373383 658.528992,425.072845 
	C492.829132,342.309387 327.161285,259.481781 161.491165,176.658768 
	C108.845551,150.339783 56.201733,124.017189 3.554831,97.700760 
	C2.961730,97.404282 2.338312,97.168449 1.364523,96.952156 
	C1.000000,65.000000 1.000000,33.000000 1.500000,1.000000 
z"/>
<path fill="#DA6074" opacity="1.000000" stroke="none" 
	d="
M852.120178,427.783875 
	C851.868286,427.667603 851.810059,427.240540 851.946167,427.073425 
	C852.475708,427.057922 852.869263,427.209564 853.262756,427.361206 
	C852.965881,427.540894 852.668945,427.720520 852.120178,427.783875 
z"/>
<path fill="#566B9B" opacity="1.000000" stroke="none" 
	d="
M566.109070,427.788818 
	C565.866089,427.665497 565.690430,427.314087 565.830444,427.176300 
	C566.372314,427.141022 566.774231,427.243530 567.176147,427.346008 
	C566.901428,427.534729 566.626770,427.723450 566.109070,427.788818 
z"/>
<path fill="#DA6074" opacity="1.000000" stroke="none" 
	d="
M1709.885132,854.216980 
	C1710.132324,854.332336 1710.213989,854.731689 1710.086182,854.890503 
	C1709.566406,854.915283 1709.174316,854.781311 1708.782227,854.647400 
	C1709.067505,854.465454 1709.352661,854.283508 1709.885132,854.216980 
z"/>
<path fill="#566B9B" opacity="1.000000" stroke="none" 
	d="
M1995.902344,854.213379 
	C1996.134766,854.335938 1996.333252,854.648560 1996.200439,854.777649 
	C1995.679688,854.827148 1995.291748,854.747498 1994.903687,854.667847 
	C1995.159058,854.475464 1995.414551,854.283142 1995.902344,854.213379 
z"/>
<path fill="#566B9B" opacity="1.000000" stroke="none" 
	d="
M1995.812012,427.029236 
	C1996.065552,427.095001 1996.334717,427.348450 1996.238403,427.506226 
	C1995.746460,427.674530 1995.350708,427.684998 1994.955078,427.695496 
	C1995.156128,427.451447 1995.357178,427.207458 1995.812012,427.029236 
z"/>
<path fill="#DA6074" opacity="1.000000" stroke="none" 
	d="
M1518.781494,427.005920 
	C1519.035645,427.048523 1519.263672,427.323761 1519.202637,427.491699 
	C1518.749268,427.672729 1518.357056,427.685760 1517.964600,427.698792 
	C1518.152222,427.453644 1518.339844,427.208496 1518.781494,427.005920 
z"/>
<path fill="#566B9B" opacity="1.000000" stroke="none" 
	d="
M566.238831,855.005554 
	C565.971191,854.960693 565.688843,854.687988 565.774170,854.511230 
	C566.274597,854.318420 566.689758,854.302307 567.104919,854.286194 
	C566.905396,854.540894 566.705933,854.795654 566.238831,855.005554 
z"/>
<path fill="#DA6074" opacity="1.000000" stroke="none" 
	d="
M1043.265747,855.028259 
	C1043.000000,855.000244 1042.761353,854.701843 1042.811768,854.517578 
	C1043.273071,854.317322 1043.684204,854.301331 1044.095215,854.285400 
	C1043.907349,854.542358 1043.719360,854.799316 1043.265747,855.028259 
z"/>
</svg>