<?xml version="1.0" encoding="UTF-8"?>
<svg version="1.1" xmlns="http://www.w3.org/2000/svg" width="1292" height="792">
<path d="M0 0 C1.14210151 0.00092179 2.28420301 0.00184359 3.46091366 0.00279331 C4.7664822 0.00141865 6.07205074 0.00004398 7.41718197 -0.00137234 C8.87755512 0.00216728 10.33792804 0.0058021 11.79830074 0.00952244 C13.3255224 0.0098043 14.8527442 0.0096466 16.37996578 0.00907993 C20.5388766 0.00879192 24.69775884 0.01468928 28.85666299 0.02165389 C33.19820497 0.02788677 37.53974753 0.02849118 41.8812933 0.0296793 C50.10839555 0.03279281 58.33548458 0.04100646 66.562581 0.05102879 C75.92639037 0.06218932 85.29020035 0.06770022 94.65401471 0.07272422 C113.92143722 0.08318906 133.18884741 0.10078888 152.45625973 0.12304783 C171.11395765 50.85483501 171.11395765 50.85483501 179.15993404 73.06314182 C186.40089101 93.04522561 193.71682641 112.99867295 201.08125973 132.93554783 C208.06135001 151.83299837 214.95370199 170.75931683 221.75520992 189.72174168 C227.2155459 204.94230041 232.74371707 220.13623584 238.33125973 235.31054783 C250.83730943 269.29660779 250.83730943 269.29660779 256.52771091 284.8787117 C257.66232707 287.98545149 258.79911224 291.09136714 259.93910885 294.19613743 C261.20195571 297.63628535 262.45875461 301.07858414 263.71407223 304.52148533 C264.09436581 305.55339497 264.47465939 306.5853046 264.86647701 307.64848423 C265.20950863 308.5931908 265.55254025 309.53789738 265.90596676 310.51123142 C266.20697292 311.33384464 266.50797909 312.15645786 266.81810665 313.00399876 C267.45625973 315.12304783 267.45625973 315.12304783 267.45625973 318.12304783 C216.63625973 318.12304783 165.81625973 318.12304783 113.45625973 318.12304783 C110.06390947 309.98140721 106.83642551 301.88982055 103.86641598 293.59961033 C103.44470119 292.43062702 103.02298641 291.26164371 102.58849239 290.05723667 C101.4611898 286.93146352 100.33631327 283.80483903 99.21257305 280.67778492 C97.10854955 274.82576096 94.9969388 268.97646714 92.88594723 263.12695408 C92.65369379 262.48305414 92.42144035 261.83915421 92.18214893 261.17574215 C89.14522392 252.75810391 86.0791407 244.35195819 82.96407223 235.96289158 C82.63094524 235.06497898 82.29781826 234.16706638 81.95459652 233.24194431 C80.43281127 229.14387568 78.90478577 225.04826349 77.36861324 220.95556736 C76.83910182 219.53357918 76.30971491 218.11154463 75.78047848 216.68945408 C75.32761471 215.48232761 74.87475094 214.27520115 74.40816402 213.03149509 C73.45625973 210.12304783 73.45625973 210.12304783 73.45625973 207.12304783 C72.79625973 207.12304783 72.13625973 207.12304783 71.45625973 207.12304783 C71.36328609 207.75283543 71.27031246 208.38262302 71.17452145 209.03149509 C70.16573681 213.37352086 68.55924376 217.43089037 66.96407223 221.58789158 C66.61746548 222.49882069 66.27085873 223.40974979 65.91374874 224.34828281 C65.18097158 226.27124908 64.44623658 228.19347027 63.7096777 230.11499119 C62.58732644 233.04471164 61.47251461 235.97721887 60.35860348 238.9101572 C59.64420951 240.78207371 58.92938006 242.65382409 58.21407223 244.52539158 C57.71703289 245.8334602 57.71703289 245.8334602 57.20995235 247.16795444 C56.73463573 248.40437435 56.73463573 248.40437435 56.24971676 249.66577244 C55.97515652 250.38349323 55.70059628 251.10121403 55.41771603 251.84068394 C54.22964894 254.6609904 52.82488181 257.38580367 51.45625973 260.12304783 C0.63625973 260.12304783 -50.18374027 260.12304783 -102.54374027 260.12304783 C-101.86867103 256.74770163 -101.27951544 254.13626662 -100.0793848 251.01855564 C-99.77962742 250.23409061 -99.47987003 249.44962559 -99.17102909 248.64138889 C-98.84285191 247.79486759 -98.51467472 246.94834629 -98.17655277 246.07617283 C-97.65757923 244.72360889 -97.65757923 244.72360889 -97.12812138 243.34372044 C-95.97893517 240.3519639 -94.82390487 237.36250059 -93.66874027 234.37304783 C-92.85237988 232.25189893 -92.03630425 230.13064042 -91.22049809 228.0092783 C-84.82242229 211.38538965 -78.38288999 194.77741771 -71.93485355 178.17285252 C-65.78327196 162.331076 -59.65891973 146.47890876 -53.54374027 130.62304783 C-46.30655256 111.85866806 -39.05210202 93.10114273 -31.77036381 74.35400486 C-27.13865548 62.42843693 -22.52948919 50.49455267 -17.94999027 38.54882908 C-17.48597813 37.3391396 -17.02196598 36.12945011 -16.54389286 34.88310337 C-14.28437987 28.9919808 -12.02765768 23.09981637 -9.77567387 17.2058115 C-8.96669731 15.09484985 -8.15762073 12.98392653 -7.34842777 10.87304783 C-6.79052555 9.40820705 -6.79052555 9.40820705 -6.22135258 7.91377354 C-5.88156376 7.0289278 -5.54177494 6.14408207 -5.19168949 5.23242283 C-4.74803547 4.07178318 -4.74803547 4.07178318 -4.29541874 2.88769627 C-3.1497884 0.19820218 -3.04530783 0.14731005 0 0 Z M17.45625973 13.12304783 C18.24390175 17.84889994 19.15491636 21.39940295 20.80782223 25.80664158 C21.05412884 26.46898304 21.30043545 27.1313245 21.55420589 27.81373692 C22.09996718 29.2799178 22.64813196 30.74520567 23.19835567 32.20971775 C24.78157456 36.42521383 26.34580652 40.64777545 27.91329098 44.86914158 C28.26362896 45.81115421 28.61396694 46.75316685 28.97492123 47.72372532 C31.98110538 55.81620012 34.94874936 63.92256082 37.90547848 72.03320408 C38.14242868 72.68316223 38.37937889 73.33312038 38.62350941 74.00277424 C39.84387592 77.35068088 41.06381241 80.69874405 42.28356075 84.04687595 C52.26182074 111.43503558 62.3182086 138.79357817 72.45625973 166.12304783 C74.48762477 164.09168279 75.04208383 162.98410071 76.03414059 160.35913181 C76.33381741 159.5744553 76.63349422 158.78977879 76.94225216 157.9813242 C77.26527309 157.11930393 77.58829403 156.25728367 77.92110348 155.36914158 C78.43802258 154.01000645 78.43802258 154.01000645 78.96538448 152.62341404 C79.71633005 150.64743238 80.46486018 148.6705315 81.21129513 146.69284153 C82.8241376 142.42049688 84.44912273 138.15280645 86.07367611 133.88490391 C86.92461358 131.64938326 87.77499697 129.41365164 88.62485409 127.17772007 C92.95693966 115.78617492 97.35640304 104.42119318 101.76875973 93.06054783 C102.54385693 91.06308307 103.31892185 89.06560579 104.09395504 87.06811619 C108.24642606 76.36968822 112.40891925 65.67517657 116.57605839 54.98245525 C117.31758022 53.0795104 118.05889276 51.17648416 118.80011654 49.27342319 C119.16322099 48.34116901 119.16322099 48.34116901 119.53366089 47.39008141 C120.2596814 45.52601529 120.98570189 43.66194916 121.71172237 41.79788303 C123.12496324 38.17128259 124.54019037 34.54546152 125.95552731 30.91967869 C126.81392475 28.71666639 127.67224589 26.51362436 128.53047848 24.31054783 C128.92947353 23.29017933 129.32846859 22.26981083 129.73955441 21.21852207 C130.09941433 20.29369526 130.45927425 19.36886845 130.83003902 18.41601658 C131.14579388 17.60672703 131.46154873 16.79743748 131.78687191 15.963624 C132.51322347 14.29283798 132.51322347 14.29283798 132.45625973 13.12304783 C94.50625973 13.12304783 56.55625973 13.12304783 17.45625973 13.12304783 Z M3.45625973 21.12304783 C3.07107174 22.13874851 2.68588375 23.1544492 2.2890234 24.20092869 C-5.62402284 45.05750701 -13.59252349 65.89156913 -21.66874027 86.68554783 C-22.06037357 87.6939069 -22.45200687 88.70226597 -22.85550785 89.74118137 C-23.25213627 90.76237064 -23.64876469 91.78355991 -24.05741215 92.83569431 C-24.87188845 94.9327719 -25.68634134 97.02985858 -26.50077152 99.12695408 C-26.90949497 100.17936787 -27.31821842 101.23178165 -27.73932743 102.31608677 C-32.62915326 114.9116398 -37.4930315 127.51719928 -42.35624027 140.12304783 C-42.80977879 141.29853184 -43.2633173 142.47401585 -43.7305994 143.68512058 C-46.04715459 149.68923141 -48.36342939 155.69345033 -50.67948246 161.69775486 C-54.88980876 172.61284564 -59.10110955 183.52756036 -63.31310272 194.44200802 C-64.95057074 198.68518699 -66.58765594 202.92851353 -68.22464848 207.17187595 C-68.87674541 208.86154987 -68.87674541 208.86154987 -69.54201603 210.58535862 C-70.38160887 212.76137894 -71.22062721 214.93762103 -72.05901432 217.11410618 C-73.92823508 221.96223919 -75.80833411 226.80523228 -77.72391605 231.63525486 C-78.05549213 232.47472157 -78.38706821 233.31418827 -78.72869205 234.17909336 C-79.33728591 235.71700215 -79.94996829 237.25330234 -80.56765079 238.78758335 C-81.72819117 241.72491223 -82.54374027 243.93315731 -82.54374027 247.12304783 C-41.62374027 247.12304783 -0.70374027 247.12304783 41.45625973 247.12304783 C44.73259521 240.62609344 44.73259521 240.62609344 47.53096676 234.01147556 C47.88458279 233.09369831 48.23819881 232.17592106 48.60253048 231.23033237 C48.96933926 230.26551441 49.33614803 229.30069645 49.71407223 228.30664158 C50.29776073 226.78370235 50.29776073 226.78370235 50.89324093 225.22999668 C51.71032548 223.09524661 52.52540776 220.9597292 53.33858395 218.82348728 C54.57950546 215.56515407 55.82794586 212.30977577 57.07735348 209.05468845 C57.87337477 206.9721775 58.66896248 204.88950074 59.46407223 202.80664158 C59.83492947 201.83979939 60.20578671 200.87295719 60.58788204 199.87681675 C61.27011377 198.08019935 61.93855814 196.27826165 62.59049129 194.47042942 C63.30767115 192.52592008 64.12077857 190.61710051 64.95748043 188.72094822 C65.76217345 182.91636621 63.50316639 178.25135162 61.42891598 172.87304783 C60.9780563 171.65572468 60.52719662 170.43840153 60.06267452 169.1841898 C59.08403172 166.54185975 58.09302604 163.90464249 57.0919714 161.27072239 C55.49724906 157.07451699 53.92980992 152.86845244 52.36666012 148.66040134 C50.45552024 143.52057714 48.53810482 138.38318376 46.61274147 133.24867058 C43.12393866 123.94179296 39.69171644 114.61522199 36.29219723 105.27539158 C36.04476521 104.59570002 35.79733318 103.91600845 35.54240322 103.21572018 C34.31025631 99.83028137 33.07898856 96.44452368 31.84810543 93.05862522 C29.47156442 86.52297558 27.08509497 79.99094954 24.69844723 73.45898533 C24.02413662 71.61322659 24.02413662 71.61322659 23.33620358 69.73017979 C17.40991 53.51540493 11.44359232 37.315375 5.45625973 21.12304783 C4.79625973 21.12304783 4.13625973 21.12304783 3.45625973 21.12304783 Z M143.45625973 21.12304783 C143.10612064 22.03098339 143.10612064 22.03098339 142.74890804 22.95726109 C122.92948274 74.34832621 122.92948274 74.34832621 114.22603512 96.77221775 C112.71080017 100.67628792 111.19843174 104.58144976 109.68843746 108.48754978 C106.05457907 117.88230784 102.40510331 127.27026058 98.70166683 136.63783741 C96.62013178 141.90354112 94.549179 147.17333185 92.48471737 152.44575214 C91.23012117 155.64778978 89.969621 158.84722151 88.69478512 162.04126072 C87.28279577 165.58634999 85.89093528 169.13874563 84.50313473 172.69336033 C84.07711971 173.74834721 83.6511047 174.80333408 83.21218014 175.89029026 C79.28016667 186.0777797 81.78482971 192.65047852 85.44454098 202.56054783 C85.8554649 203.69021473 86.26638882 204.81988163 86.68976498 205.98378086 C87.81016697 209.06000314 88.93651832 212.13396403 90.06564999 215.20699024 C91.24517774 218.42134352 92.41732431 221.63838534 93.59004879 224.85522556 C95.04974008 228.85763212 96.51036764 232.85968949 97.97453976 236.86045933 C101.18503039 245.63303929 104.37782643 254.4118347 107.55520344 263.19646168 C109.16232965 267.63916929 110.77163783 272.08108744 112.38042355 276.52319431 C113.26440464 278.96501278 114.1477257 281.4070703 115.03038692 283.84936619 C116.25820252 287.24495885 117.48957393 290.63924069 118.72188473 294.03320408 C119.08757061 295.04705677 119.45325649 296.06090946 119.83002377 297.10548496 C120.16333202 298.0214394 120.49664028 298.93739384 120.84004879 299.88110447 C121.12978573 300.68101307 121.41952267 301.48092167 121.71803951 302.30506992 C122.31369728 304.11019106 122.31369728 304.11019106 123.45625973 305.12304783 C125.07582312 305.21907805 126.69959055 305.24492638 128.32199764 305.24330235 C129.90171352 305.24536434 129.90171352 305.24536434 131.51334286 305.24746799 C132.6785899 305.24387272 133.84383694 305.24027744 135.04439449 305.23657322 C136.87340801 305.23679226 136.87340801 305.23679226 138.7393713 305.23701572 C142.09253484 305.23643676 145.44563747 305.23140751 148.79879022 305.22444177 C152.29951535 305.21820766 155.80024121 305.21760438 159.30097103 305.21641636 C165.93435628 305.21330321 172.56772513 305.20509005 179.20110315 305.19506687 C186.7511618 305.18390522 194.30122121 305.17839515 201.85128605 305.17337143 C217.38628679 305.16290742 232.92127115 305.1453083 248.45625973 305.12304783 C246.86797222 299.72601436 245.260316 294.36122593 243.32173824 289.07739353 C242.92524578 287.99217915 242.52875332 286.90696476 242.12024593 285.78886509 C241.48413136 284.06129726 241.48413136 284.06129726 240.83516598 282.29882908 C240.14229254 280.40570318 239.44941985 278.51257701 238.75657654 276.61944008 C238.02057895 274.61008829 237.28316423 272.601262 236.54531002 270.59259129 C234.99276977 266.36598818 233.44408606 262.13797881 231.89620113 257.90966892 C231.36806498 256.46704158 230.83992777 255.02441463 230.31178951 253.58178806 C230.04925632 252.86464634 229.78672314 252.14750462 229.5162344 251.40863132 C228.71509456 249.22064033 227.91357008 247.03279056 227.11196041 244.84497166 C222.56564594 232.43484229 218.05126288 220.01326293 213.54357052 207.58905125 C205.92914404 186.60447775 198.23569828 165.65012839 190.50121212 144.70953465 C183.97369373 127.030093 177.53884082 109.31958856 171.17745113 91.57974339 C162.73697914 68.04518217 154.10997443 44.57990151 145.45625973 21.12304783 C144.79625973 21.12304783 144.13625973 21.12304783 143.45625973 21.12304783 Z " fill="#02EB9F" transform="translate(416.543740272522,63.876952171325684)"/>
<path d="M0 0 C50.82 0 101.64 0 154 0 C153.22381815 3.88090926 152.32515823 7.15216475 150.99731445 10.83959961 C150.58153641 11.99942352 150.16575836 13.15924744 149.73738098 14.35421753 C149.27944343 15.62029422 148.82140736 16.88633528 148.36328125 18.15234375 C147.88743501 19.47509011 147.41187013 20.79793772 146.93656921 22.12088013 C145.66385082 25.66018858 144.38652883 29.1978187 143.10809326 32.73506546 C142.0414934 35.68772544 140.97741737 38.64129256 139.91322517 41.59482098 C133.80923326 58.53326968 127.66769962 75.45731679 121.41577148 92.34179688 C116.10944859 106.67362724 110.8638683 121.02751565 105.62447357 135.38391495 C104.87524377 137.43683207 104.12589444 139.48970554 103.37652588 141.54257202 C98.17828676 155.78378264 92.98667625 170.02736961 87.8125 184.27734375 C87.40029709 185.41251434 86.98809418 186.54768494 86.56340027 187.71725464 C86.15471207 188.8427774 85.74602386 189.96830017 85.32495117 191.12792969 C84.50830642 193.37695517 83.69165606 195.62597862 82.875 197.875 C82.47229889 198.98411743 82.06959778 200.09323486 81.6546936 201.23596191 C76.97838222 214.11152369 72.28077318 226.97895804 67.54296875 239.83203125 C67.31347786 240.45463837 67.08398697 241.07724548 66.84754181 241.71871948 C64.43236726 248.27001791 62.01379814 254.82005501 59.59130859 261.36865234 C52.62960632 280.21236826 45.82369478 299.10361446 39 318 C-12.15 318 -63.3 318 -116 318 C-118.43293978 312.5258855 -120.81742372 307.0977169 -123.00390625 301.53125 C-123.27910095 300.83487427 -123.55429565 300.13849854 -123.83782959 299.42102051 C-124.74823325 297.11486658 -125.65550702 294.80749727 -126.5625 292.5 C-127.21964116 290.83202967 -127.87678646 289.16406096 -128.53393555 287.49609375 C-134.65943074 271.93046395 -140.70047237 256.3321269 -146.73852539 240.73242188 C-152.12850704 226.80956844 -157.55151765 212.90005697 -163 199 C-169.64438432 182.04701799 -176.24580156 165.0777827 -182.82144165 148.09802246 C-188.0813828 134.51574491 -193.3591527 120.94066498 -198.66156006 107.37490845 C-207.80318554 83.98569338 -207.80318554 83.98569338 -212 73 C-212.32057373 72.16307617 -212.64114746 71.32615234 -212.97143555 70.46386719 C-215 65.12423803 -215 65.12423803 -215 64 C-163.85 64 -112.7 64 -60 64 C-54.06 79.18 -48.12 94.36 -42 110 C-41.67 110.33 -41.34 110.66 -41 111 C-40.55422607 109.75766602 -40.10845215 108.51533203 -39.64916992 107.23535156 C-31.10291243 83.4253665 -22.53040835 59.6248245 -13.87002563 35.8560791 C-13.04436273 33.58898205 -12.21978627 31.321489 -11.39633179 29.05358887 C-10.23874786 25.86659088 -9.07697704 22.68114987 -7.9140625 19.49609375 C-7.57620224 18.56371384 -7.23834198 17.63133392 -6.89024353 16.67070007 C-6.56762039 15.78993301 -6.24499725 14.90916595 -5.91259766 14.00170898 C-5.63823883 13.24873032 -5.36388 12.49575165 -5.08120728 11.71995544 C-3.50832121 7.7631008 -1.72934261 3.89102086 0 0 Z M10 13 C6.60765089 21.14163787 3.38013906 29.23321866 0.41015625 37.5234375 C-0.22214401 39.27630066 -0.22214401 39.27630066 -0.86721802 41.0645752 C-1.76414077 43.55170405 -2.66007822 46.0391591 -3.55422974 48.52728271 C-5.6573589 54.37923014 -7.76879993 60.22817925 -9.88043785 66.0770607 C-10.35079789 67.3799282 -10.82105469 68.68283298 -11.29120827 69.98577499 C-16.29549472 83.85264 -21.38071737 97.68912001 -26.52865601 111.50328064 C-27.02418864 112.84701986 -27.51206352 114.19361369 -27.99136353 115.54322815 C-29.02682069 118.45624572 -30.11871212 121.24138848 -31.48413086 124.01782227 C-34.47778821 130.60296689 -33.99923965 134.85682361 -31.55859375 141.41796875 C-30.25021824 144.70389635 -28.84633086 147.94366849 -27.4375 151.1875 C-26.6937102 152.97872784 -25.95422812 154.77174963 -25.21875 156.56640625 C-23.64794802 160.39320205 -22.06082814 164.21265701 -20.46435547 168.02880859 C-16.70051574 177.08340412 -13.20927349 186.24413864 -9.69345093 195.39712524 C-7.6994537 200.58135487 -5.68904838 205.75921025 -3.6796875 210.9375 C-3.2862767 211.95209793 -2.89286591 212.96669586 -2.48753357 214.01203918 C8.2532869 241.70937418 19.08748198 269.36989005 30 297 C30.66 297 31.32 297 32 297 C32.23564667 296.34459732 32.47129333 295.68919464 32.71408081 295.01393127 C52.89616293 238.8900836 52.89616293 238.8900836 62.9375 211.625 C63.29263672 210.66065033 63.64777344 209.69630066 64.01367188 208.70272827 C64.37267578 207.72792511 64.73167969 206.75312195 65.1015625 205.7487793 C65.83987187 203.74398822 66.57815279 201.73918666 67.31640625 199.734375 C67.68686066 198.72840775 68.05731506 197.72244049 68.43899536 196.68598938 C73.44242852 183.09139308 78.40843607 169.48309781 83.375 155.875 C83.61852707 155.20779182 83.86205414 154.54058365 84.11296082 153.85315704 C93.17424395 129.02669558 102.21187503 104.19165763 111.23638916 79.35180664 C114.14358542 71.3516896 117.05672988 63.35375412 119.9719944 55.35657501 C121.38248793 51.48677601 122.79213391 47.61666819 124.20176601 43.74655533 C125.33315154 40.64062087 126.46531101 37.53497172 127.59848022 34.4296875 C128.84312578 31.0187485 130.085841 27.60711216 131.328125 24.1953125 C131.70203873 23.17220978 132.07595245 22.14910706 132.4611969 21.09500122 C132.79787888 20.16920258 133.13456085 19.24340393 133.48144531 18.28955078 C133.92390594 17.07611496 133.92390594 17.07611496 134.37530518 15.83816528 C135.0536288 14.16576648 135.0536288 14.16576648 135 13 C93.75 13 52.5 13 10 13 Z M-195 77 C-190.39714487 90.15985598 -190.39714487 90.15985598 -185.4765625 103.1875 C-185.17379898 103.96101807 -184.87103546 104.73453613 -184.55909729 105.53149414 C-183.5836456 108.022017 -182.60431227 110.51099301 -181.625 113 C-180.92067125 114.79675407 -180.21665852 116.59363205 -179.51293945 118.390625 C-178.05919369 122.10205449 -176.60412531 125.8129609 -175.14794922 129.5234375 C-171.81760164 138.01164147 -168.50238554 146.50574865 -165.1875 155 C-164.86324036 155.83055908 -164.53898071 156.66111816 -164.20489502 157.5168457 C-158.20861587 172.87647438 -152.246249 188.24916809 -146.28961182 203.62420654 C-140.40650291 218.80867811 -134.50112983 233.98426309 -128.57519531 249.15206909 C-122.34941898 265.08825339 -116.16334252 281.03957011 -110 297 C-109.34 297 -108.68 297 -108 297 C-107.65199844 296.03663223 -107.65199844 296.03663223 -107.29696655 295.05380249 C-87.67572373 240.74254162 -87.67572373 240.74254162 -80.89981079 222.40905762 C-80.11872024 220.29550762 -79.33884597 218.1815126 -78.55932617 216.06738281 C-78.00700479 214.56965921 -77.45467712 213.07193793 -76.90234375 211.57421875 C-76.61791916 210.80296661 -76.33349457 210.03171448 -76.04045105 209.23709106 C-74.340799 204.62981966 -72.63883777 200.02341193 -70.9344101 195.41790485 C-68.31008918 188.32630695 -65.69250287 181.23227185 -63.08356476 174.13499928 C-61.76119952 170.5384654 -60.43579126 166.94312132 -59.10284424 163.35049438 C-57.84213195 159.95236611 -56.58963711 156.55131688 -55.34300041 153.14800072 C-54.65528382 151.27706875 -53.95905164 149.40927386 -53.2625885 147.5415802 C-49.26628838 136.58833282 -48.21366909 130.34717684 -52.734375 119.40234375 C-53.12820374 118.40924698 -53.52203247 117.41615021 -53.92779541 116.39295959 C-55.18514406 113.23414657 -56.46716477 110.08603643 -57.75 106.9375 C-58.59798172 104.81770764 -59.44435272 102.69727019 -60.2890625 100.57617188 C-63.44357777 92.67944419 -66.65013507 84.81635149 -70 77 C-111.25 77 -152.5 77 -195 77 Z M-41 153 C-44.35165739 160.89253688 -47.49646915 168.83307301 -50.44921875 176.8828125 C-50.85949814 177.99552017 -51.26977753 179.10822784 -51.69248962 180.25465393 C-53.02698633 183.8770696 -54.3574397 187.50095327 -55.6875 191.125 C-56.15140054 192.38664696 -56.61541104 193.64825349 -57.07952881 194.90982056 C-64.42383373 214.87506549 -71.67453036 234.8732158 -78.85180664 254.89916992 C-82.05549032 263.8359035 -85.2664446 272.76871976 -88.5625 281.671875 C-88.83025238 282.39603104 -89.09800476 283.12018707 -89.37387085 283.86628723 C-90.57776305 287.11950948 -91.78743233 290.37027967 -93.00634766 293.61791992 C-93.610354 295.24370972 -93.610354 295.24370972 -94.2265625 296.90234375 C-94.57283691 297.82523193 -94.91911133 298.74812012 -95.27587891 299.69897461 C-96.15009093 302.07489521 -96.15009093 302.07489521 -96 305 C-58.38 305 -20.76 305 18 305 C17.30906121 301.54530606 16.68956723 298.9004688 15.44384766 295.71191406 C14.96421822 294.47525246 14.96421822 294.47525246 14.47489929 293.21360779 C14.12482315 292.32327347 13.77474701 291.43293915 13.4140625 290.515625 C13.0456575 289.56893448 12.6772525 288.62224396 12.29768372 287.64686584 C11.07722368 284.51309374 9.85108242 281.38157614 8.625 278.25 C7.76398007 276.04207619 6.90339122 273.83398424 6.04321289 271.62573242 C4.25357618 267.03224255 2.46207454 262.43948619 0.66943359 257.84716797 C-2.64212042 249.35892495 -5.93079451 240.86186706 -9.21948242 232.36474609 C-12.73472875 223.28226783 -16.25982157 214.20361418 -19.78613281 205.12542725 C-20.61253671 202.99762835 -21.43869916 200.86973566 -22.26464844 198.74176025 C-24.79200795 192.23037924 -27.32313434 185.72048681 -29.85983276 179.21273804 C-30.65593857 177.16880926 -31.45081758 175.12440219 -32.24441528 173.07949829 C-33.33792814 170.2625973 -34.43594507 167.44749385 -35.53515625 164.6328125 C-35.85818726 163.79780716 -36.18121826 162.96280182 -36.51403809 162.10249329 C-36.81370483 161.3379332 -37.11337158 160.57337311 -37.42211914 159.78564453 C-37.68013809 159.12291534 -37.93815704 158.46018616 -38.20399475 157.77737427 C-39.0655749 155.72163101 -39.0655749 155.72163101 -41 153 Z " fill="#02EB9F" transform="translate(840,64)"/>
<path d="M0 0 C1.05574219 -0.01611328 2.11148438 -0.03222656 3.19921875 -0.04882812 C18.00842002 -0.05789128 31.10423968 4.25705529 42.03515625 14.47265625 C50.95353383 24.04112058 52.49718443 35.35140618 52.09765625 47.9609375 C51.38544158 59.80054919 44.70324713 69.83923807 36.75 78.3125 C34.56405485 80.22425453 32.27322041 81.96370188 29.9375 83.6875 C29.34001953 84.13738281 28.74253906 84.58726562 28.12695312 85.05078125 C26.67271849 86.1443657 25.2120285 87.22935736 23.75 88.3125 C28.94970271 95.82318169 35.22199125 101.97462743 41.75 108.3125 C45.61669782 106.18506392 48.51719625 103.78056573 51.61328125 100.64453125 C52.49951172 99.75185547 53.38574219 98.85917969 54.29882812 97.93945312 C55.21083984 97.01068359 56.12285156 96.08191406 57.0625 95.125 C58.0027888 94.1746685 58.94353971 93.224794 59.88476562 92.27539062 C62.17775959 89.95887877 64.46594652 87.63782199 66.75 85.3125 C72.29126584 89.93633772 77.45826399 94.8376909 82.5625 99.9375 C83.32498047 100.68773437 84.08746094 101.43796875 84.87304688 102.2109375 C85.60201172 102.93796875 86.33097656 103.665 87.08203125 104.4140625 C87.73921143 105.06713379 88.3963916 105.72020508 89.07348633 106.39306641 C90.72461704 108.28343915 91.74558236 110.02368767 92.75 112.3125 C86.28443274 120.60671254 79.27844047 127.9954666 71.75 135.3125 C71.09 135.9725 70.43 136.6325 69.75 137.3125 C70.19802979 137.75529297 70.64605957 138.19808594 71.10766602 138.65429688 C73.17870096 140.70426683 75.24560697 142.75835433 77.3125 144.8125 C78.01697266 145.50859375 78.72144531 146.2046875 79.44726562 146.921875 C83.48176281 150.93778003 87.30688267 155.05282034 91.01977539 159.36621094 C94.51180186 163.29430957 98.33804586 166.89988172 102.11523438 170.55078125 C102.71529297 171.13988281 103.31535156 171.72898437 103.93359375 172.3359375 C104.47556396 172.86106934 105.01753418 173.38620117 105.57592773 173.92724609 C106.75 175.3125 106.75 175.3125 106.75 177.3125 C99.26206078 177.61849126 91.77574827 177.82759682 84.28295898 177.97167969 C81.738401 178.03177591 79.19425311 178.11348362 76.65112305 178.21777344 C54.32275898 179.11003324 54.32275898 179.11003324 48.74072266 174.76367188 C45.89247854 171.94529912 43.86378746 168.70895808 41.75 165.3125 C40.12408946 163.60605033 38.46807243 161.92612409 36.75 160.3125 C36.14414062 160.82039062 35.53828125 161.32828125 34.9140625 161.8515625 C14.7199901 178.44176967 -6.54500397 183.03679958 -32.25 181.3125 C-46.11258795 179.5174689 -57.53563606 172.02515774 -66.25 161.3125 C-74.41344487 148.07220202 -75.92454022 134.41485887 -73.8203125 119.20703125 C-69.4517083 102.6764487 -57.48254065 92.3524576 -43.703125 83.57421875 C-40.72503451 81.66755434 -37.96823478 79.57942481 -35.25 77.3125 C-35.84167969 76.51328125 -36.43335938 75.7140625 -37.04296875 74.890625 C-45.33027557 63.46402746 -51.48412429 51.84774159 -50.25 37.3125 C-48.14580877 25.11532371 -42.35969026 15.505043 -32.25 8.3125 C-21.51868256 1.95005883 -12.31811242 -0.0370581 0 0 Z M-9.5625 34.8125 C-12.40365309 39.02161568 -12.65319861 42.31283718 -12.25 47.3125 C-10.06262846 54.82201122 -5.27346887 60.47210779 -0.25 66.3125 C6.9843439 63.93124906 12.37514387 58.10880287 16.35546875 51.74609375 C18.65984712 46.72050406 19.29769914 42.64051213 17.7265625 37.29296875 C15.79037919 33.36638899 12.62884418 31.25192209 8.75 29.3125 C1.32571214 28.61814214 -4.2689659 29.08976043 -9.5625 34.8125 Z M-21.125 108.875 C-27.04349898 114.91306461 -30.74371399 120.04712551 -31.5625 128.5625 C-31.05777311 134.61922265 -28.80904337 139.2508091 -24.1875 143.25 C-18.80862454 147.02665724 -13.62089195 146.8985216 -7.25 146.3125 C0.28507899 144.45392183 5.93941996 140.30903743 11.75 135.3125 C10.14605252 131.44469523 7.52361264 128.6860907 4.6875 125.6875 C3.69494561 124.62143522 2.70276388 123.55502338 1.7109375 122.48828125 C0.96602051 121.69091553 0.96602051 121.69091553 0.20605469 120.87744141 C-1.94722797 118.56313191 -4.06954801 116.22163451 -6.1875 113.875 C-7.22197266 112.73224609 -7.22197266 112.73224609 -8.27734375 111.56640625 C-9.70371202 109.93667458 -11.06366848 108.24801262 -12.37890625 106.52734375 C-12.99636719 105.79644531 -13.61382812 105.06554687 -14.25 104.3125 C-17.51687253 104.3125 -18.87615151 106.63616122 -21.125 108.875 Z " fill="#02EB9F" transform="translate(341.25,538.6875)"/>
<path d="M0 0 C20.46 0 40.92 0 62 0 C65.13856547 7.53255713 68.11005758 14.8890267 70.6796875 22.59765625 C71.0087056 23.5722731 71.33772369 24.54688995 71.67671204 25.55104065 C72.38024336 27.63583603 73.08199023 29.72123432 73.78207397 31.80718994 C75.67184776 37.43593284 77.57656062 43.05961914 79.48046875 48.68359375 C79.86542007 49.82151367 80.2503714 50.95943359 80.64698792 52.13183594 C84.09760968 62.31847565 87.62770325 72.47609025 91.1875 82.625 C95.75322013 95.64705233 100.27574017 108.68332465 104.7578125 121.734375 C105.00747332 122.46127407 105.25713413 123.18817314 105.51436043 123.93709946 C108.02559906 131.24951076 110.53455367 138.56270192 113.04016113 145.87704468 C113.97727017 148.61196414 114.91533012 151.34655688 115.85355759 154.08109283 C116.50404616 155.97827449 117.1531177 157.87594182 117.80215454 159.77362061 C118.19462372 160.91744202 118.5870929 162.06126343 118.99145508 163.23974609 C119.50317009 164.73397598 119.50317009 164.73397598 120.02522278 166.25839233 C120.66720501 168.06399815 121.36669126 169.85032523 122.12553406 171.61001587 C123 174 123 174 123 178 C106.83 178 90.66 178 74 178 C72.68 173.276875 71.36 168.55375 70 163.6875 C69.37351563 161.45746216 69.37351563 161.45746216 68.734375 159.18237305 C68.40953125 158.01230713 68.0846875 156.84224121 67.75 155.63671875 C67.41484375 154.43748779 67.0796875 153.23825684 66.734375 152.00268555 C66 149 66 149 66 146 C43.23 146 20.46 146 -3 146 C-3.33 148.31 -3.66 150.62 -4 153 C-4.49068547 154.97665975 -5.02171549 156.94376809 -5.59375 158.8984375 C-5.90183594 159.95417969 -6.20992187 161.00992188 -6.52734375 162.09765625 C-6.84832031 163.17917969 -7.16929688 164.26070312 -7.5 165.375 C-7.82097656 166.47972656 -8.14195313 167.58445312 -8.47265625 168.72265625 C-10.86682001 176.86682001 -10.86682001 176.86682001 -12 178 C-13.50418739 178.09311889 -15.01271356 178.11746028 -16.51977539 178.11352539 C-17.96115623 178.11341209 -17.96115623 178.11341209 -19.43165588 178.11329651 C-20.476436 178.10813522 -21.52121613 178.10297394 -22.59765625 178.09765625 C-24.19364906 178.09553383 -24.19364906 178.09553383 -25.82188416 178.09336853 C-29.23545083 178.08775064 -32.648953 178.07519511 -36.0625 178.0625 C-38.37044176 178.05748731 -40.67838455 178.052924 -42.98632812 178.04882812 C-48.65757426 178.0377754 -54.32878253 178.02101987 -60 178 C-59.40180918 172.48602406 -58.02321538 167.66446943 -56.1484375 162.45703125 C-55.85792511 161.63281174 -55.56741272 160.80859222 -55.26809692 159.95939636 C-54.63909769 158.17662399 -54.00723249 156.39486073 -53.37280273 154.61401367 C-51.64922006 149.77474006 -49.94726263 144.92784983 -48.2421875 140.08203125 C-47.71229218 138.57879807 -47.71229218 138.57879807 -47.17169189 137.04519653 C-43.53796931 126.7226622 -40.01444947 116.36361177 -36.5 106 C-31.24691832 90.52729294 -25.90957837 75.0861452 -20.51022339 59.66390991 C-13.56226871 39.81336599 -6.77635442 19.90990732 0 0 Z M31 31 C30.8362085 31.65218506 30.67241699 32.30437012 30.50366211 32.97631836 C25.2925071 53.52140647 19.19616762 73.76020701 12.92944336 94.00561523 C12.60447372 95.05600983 12.27950409 96.10640442 11.94468689 97.18862915 C11.32562669 99.18708839 10.70496734 101.18505313 10.08253479 103.1824646 C9.80779831 104.06753693 9.53306183 104.95260925 9.25 105.86450195 C8.88648438 107.03116142 8.88648438 107.03116142 8.515625 108.22138977 C7.95359353 109.85143512 7.95359353 109.85143512 8 111 C23.51 111 39.02 111 55 111 C53.03945617 103.15782468 51.00683983 95.47484302 48.6015625 87.77734375 C47.95049891 85.66992865 47.29945797 83.56250655 46.6484375 81.45507812 C45.64049446 78.20609618 44.63122868 74.95752963 43.62109375 71.70922852 C39.42916513 58.21183481 35.45099557 44.7070442 32 31 C31.67 31 31.34 31 31 31 Z " fill="#02EB9F" transform="translate(132,538)"/>
<path d="M0 0 C17.16 0 34.32 0 52 0 C56.49957403 10.12404157 56.49957403 10.12404157 58.09960938 14.63867188 C58.6422921 16.16134674 58.6422921 16.16134674 59.19593811 17.71478271 C59.57471603 18.78859192 59.95349396 19.86240112 60.34375 20.96875 C60.95294533 22.68121918 60.95294533 22.68121918 61.57444763 24.42828369 C62.88630409 28.11767974 64.19335402 31.80875572 65.5 35.5 C67.07741863 39.94836178 68.65719918 44.39588466 70.23792839 48.84307098 C70.908411 50.72946478 71.57854221 52.61598346 72.24867249 54.50250244 C74.7249737 61.46100631 77.23320528 68.40568517 79.80859375 75.328125 C80.08335541 76.0673671 80.35811707 76.80660919 80.64120483 77.56825256 C80.9043045 78.27606369 81.16740417 78.98387482 81.43847656 79.71313477 C86.12017972 92.31138718 90.24683169 104.82640977 93 118 C93.33128906 116.75476563 93.66257812 115.50953125 94.00390625 114.2265625 C99.24693109 95.15681533 106.05062463 76.67200246 112.79248047 58.09472656 C115.19041694 51.48257539 117.56647085 44.86262823 119.94140625 38.2421875 C121.58566675 33.66136111 123.23026552 29.08065623 124.875 24.5 C125.47545639 22.82735077 125.47545639 22.82735077 126.08804321 21.12091064 C127.22141793 17.96553984 128.35652977 14.81079972 129.4921875 11.65625 C129.83314957 10.70620087 130.17411163 9.75615173 130.52540588 8.77731323 C130.83783737 7.91042877 131.15026886 7.04354431 131.47216797 6.15039062 C131.88062454 5.01470642 131.88062454 5.01470642 132.29733276 3.8560791 C133 2 133 2 134 0 C151.16 0 168.32 0 186 0 C184.13887101 5.58338697 182.3187251 10.85486487 180.05859375 16.2421875 C179.63957794 17.24483894 179.63957794 17.24483894 179.21209717 18.26774597 C178.290284 20.47145656 177.36389774 22.67321321 176.4375 24.875 C175.77289138 26.46138068 175.10859259 28.0478912 174.44458008 29.63452148 C173.03055814 33.01180422 171.6146453 36.38828525 170.19726562 39.76416016 C168.00751457 44.98034 165.82344874 50.19888689 163.640625 55.41796875 C160.62952589 62.61669134 157.61642507 69.81457152 154.6015625 77.01171875 C151.57275712 84.24233599 148.54683574 91.4741515 145.5234375 98.70703125 C137.52514891 117.83836231 129.50015931 136.95819765 121.4375 156.0625 C121.01759796 157.05795837 120.59769592 158.05341675 120.16506958 159.07904053 C118.98451049 161.87723671 117.80299167 164.67502534 116.62109375 167.47265625 C116.26784027 168.3100383 115.91458679 169.14742035 115.55062866 170.01017761 C113.11538095 175.76923811 113.11538095 175.76923811 112 178 C99.46 178 86.92 178 74 178 C72.92105469 175.41800781 71.84210938 172.83601562 70.73046875 170.17578125 C62.34088287 150.10760641 53.91857165 130.05383908 45.44424438 110.02130127 C38.78074917 94.26456773 32.18863212 78.47887065 25.62567139 62.68002319 C21.11323903 51.81914718 16.57736243 40.96949164 11.9609375 30.15234375 C11.35927261 28.74196083 11.35927261 28.74196083 10.74545288 27.30308533 C8.84506457 22.85147577 6.93951954 18.40215918 5.02685547 13.95581055 C4.35638431 12.38983732 3.68597064 10.82383947 3.015625 9.2578125 C2.70732758 8.54572128 2.39903015 7.83363007 2.08139038 7.09996033 C0 2.22626961 0 2.22626961 0 0 Z " fill="#02EC9F" transform="translate(448,538)"/>
<path d="M0 0 C-0.58883562 4.75524547 -2.00188084 8.80499476 -3.94140625 13.1484375 C-4.22853989 13.80582916 -4.51567352 14.46322083 -4.81150818 15.14053345 C-5.72217008 17.22153764 -6.64215518 19.29826275 -7.5625 21.375 C-8.18486739 22.79269559 -8.80661858 24.21066187 -9.42773438 25.62890625 C-10.94471354 29.0891091 -12.47006297 32.54550813 -14 36 C-17.63890966 35.19919968 -19.97951186 33.80790569 -23.0625 31.6875 C-32.65160202 25.48578329 -43.75936589 21.2494812 -55.3125 23.6875 C-59.75585498 25.26903313 -63.4135442 26.98087443 -66.375 30.75 C-67.65032852 35.34118266 -67.65906754 39.38894602 -65.875 43.75 C-61.84456349 48.58652381 -56.86137799 50.59949637 -50.9375 52.3125 C-49.52295598 52.73667878 -48.10891916 53.16255153 -46.6953125 53.58984375 C-45.9415332 53.81526855 -45.18775391 54.04069336 -44.41113281 54.27294922 C-5.88956426 65.88870774 -5.88956426 65.88870774 4 84 C10.77243603 99.19222136 10.67846092 116.17677683 6 132 C0.14443592 147.27326298 -10.29252009 158.9011109 -25 166 C-47.57361323 175.19587697 -72.7324986 174.33389229 -95.3125 165.75 C-105.91249861 160.99377627 -114.65213372 153.97849166 -123 146 C-119.20626827 138.74532002 -115.08449126 131.70673071 -110.875 124.6875 C-110.3603418 123.82801758 -109.84568359 122.96853516 -109.31542969 122.08300781 C-106.64429644 117.6472345 -103.91723707 113.2781491 -101 109 C-97.39084712 111.78420365 -94.21983946 114.78016054 -91 118 C-82.33565208 126.62386031 -71.47056692 132.79876617 -59.05859375 133.0625 C-50.53813346 132.72125503 -45.34861554 130.51604632 -39.5 124.375 C-37.08728805 118.9463981 -37.12723063 113.70223135 -38.484375 107.9453125 C-40.92876232 102.33319876 -46.34497862 100.02163741 -51.75537109 97.83300781 C-57.64307939 95.648011 -63.65436786 93.80008568 -69.6628418 91.97875977 C-85.93111534 87.01536338 -101.79419042 80.78860999 -110.3125 65.0625 C-115.76023607 52.81890656 -115.94081674 36.54840138 -112.08984375 23.82421875 C-106.13344545 8.38882101 -96.14662939 -3.04278725 -81 -10 C-53.30369202 -20.39803985 -24.88295329 -14.52833124 0 0 Z " fill="#000" transform="translate(775,545)"/>
<path d="M0 0 C10.36442081 10.63063024 15.67332881 22.78219412 18.28125 37.33984375 C18.41273438 38.0565625 18.54421875 38.77328125 18.6796875 39.51171875 C19.59446744 45.49487403 19.28125 51.19344689 19.28125 57.33984375 C-11.40875 57.33984375 -42.09875 57.33984375 -73.71875 57.33984375 C-70.68125537 72.65254478 -70.68125537 72.65254478 -60.71875 82.33984375 C-52.29457776 86.25708384 -43.27694116 85.94443925 -34.48828125 83.421875 C-28.34483995 81.02168707 -23.57006144 77.39888056 -20.71875 71.33984375 C-13.35429227 73.40835285 -6.25248428 75.92647565 0.84375 78.77734375 C1.83955078 79.15955078 2.83535156 79.54175781 3.86132812 79.93554688 C4.80556641 80.31517578 5.74980469 80.69480469 6.72265625 81.0859375 C8.00184937 81.59145142 8.00184937 81.59145142 9.30688477 82.10717773 C11.28125 83.33984375 11.28125 83.33984375 12.12011719 85.35302734 C12.47274055 89.70098026 8.88766291 93.14571028 6.28125 96.33984375 C-4.27176901 107.68341994 -18.83331912 113.71383091 -34.31176758 114.46582031 C-58.17986215 115.08592373 -80.30509128 112.37888526 -98.40625 95.21484375 C-109.06996242 84.33770861 -114.72447294 70.50256895 -115.71875 55.33984375 C-115.7703125 54.5715625 -115.821875 53.80328125 -115.875 53.01171875 C-116.4981116 35.66844583 -111.77803674 19.02792661 -100.28125 5.83984375 C-98.78231244 4.31796327 -97.26209812 2.81666825 -95.71875 1.33984375 C-95.03296875 0.63472656 -94.3471875 -0.07039062 -93.640625 -0.796875 C-84.60520274 -9.58131331 -73.02122795 -14.4768996 -60.71875 -16.66015625 C-59.94789063 -16.80195312 -59.17703125 -16.94375 -58.3828125 -17.08984375 C-37.20373333 -20.05346916 -15.63880031 -14.87170726 0 0 Z M-67.03125 17.58984375 C-70.46434703 21.9303261 -72.71875 26.72264642 -72.71875 32.33984375 C-56.87875 32.33984375 -41.03875 32.33984375 -24.71875 32.33984375 C-25.85495177 23.25022957 -27.82782366 19.94606817 -34.28125 13.96484375 C-44.70964757 7.0125787 -58.54886403 8.57085916 -67.03125 17.58984375 Z " fill="#000" transform="translate(1080.71875,602.66015625)"/>
<path d="M0 0 C-1.43779918 7.0219788 -3.40681968 13.75016167 -5.625 20.5625 C-5.94984375 21.57119141 -6.2746875 22.57988281 -6.609375 23.61914062 C-7.40264698 26.08061692 -8.19958143 28.5408403 -9 31 C-12.64668017 29.57585497 -15.99981938 27.93629817 -19.4375 26.0625 C-28.68672333 21.40371633 -40.99259943 17.65834 -51.32421875 20.6796875 C-53.24331154 21.38301994 -55.12667027 22.18254703 -57 23 C-57.9363921 26.29945591 -57.9363921 26.29945591 -58 30 C-54.18996843 33.96846853 -49.85949153 35.31192243 -44.75 36.875 C-43.13903238 37.39362966 -41.52836228 37.91318423 -39.91796875 38.43359375 C-38.27869159 38.95587282 -36.63936927 39.47801014 -35 40 C-21.59131048 44.2890887 -8.21749472 48.69723648 0 61 C5.0678867 71.13577341 4.96897225 81.28232703 2.03515625 92.0078125 C-1.74902853 102.94624851 -8.63924213 109.84856494 -18.6875 115.25 C-39.70450714 124.97816915 -65.74889709 123.01201093 -87.2890625 115.57421875 C-94.12061614 113.03388317 -99.73917514 109.91301554 -106 106 C-103.03 95.11 -100.06 84.22 -97 73 C-93.03973346 74.58410662 -90.42316839 75.95907173 -87 78.3125 C-74.29311103 86.48851435 -59.08854836 91.05333188 -44 88 C-40.24327612 86.54331115 -39.35986769 85.6897464 -37.5 82.125 C-36.76034341 79.04501693 -36.76034341 79.04501693 -37.875 76.375 C-43.47053942 70.12116183 -52.26014196 68.72270504 -60.0625 66.75 C-73.26196244 63.2137764 -87.2222392 59.158608 -95 47 C-95.42796875 46.38253906 -95.8559375 45.76507812 -96.296875 45.12890625 C-100.87668045 37.08287818 -100.2345361 25.74168861 -98.33984375 16.9296875 C-94.49986479 6.32403133 -87.04173074 -1.11860311 -77 -6 C-51.79218869 -15.33938054 -24.12054048 -10.51637665 0 0 Z " fill="#000" transform="translate(1218,596)"/>
<path d="M0 0 C14.52 0 29.04 0 44 0 C44 11.88 44 23.76 44 36 C49.94 36 55.88 36 62 36 C62 46.56 62 57.12 62 68 C56.06 68 50.12 68 44 68 C44 98.03 44 128.06 44 159 C29.48 159 14.96 159 0 159 C0 128.97 0 98.94 0 68 C-5.94 68 -11.88 68 -18 68 C-18 57.44 -18 46.88 -18 36 C-12.06 36 -6.12 36 0 36 C0 24.12 0 12.24 0 0 Z " fill="#000" transform="translate(891,553)"/>
<path d="M0 0 C14.52 0 29.04 0 44 0 C44 40.59 44 81.18 44 123 C29.48 123 14.96 123 0 123 C0 82.41 0 41.82 0 0 Z " fill="#000" transform="translate(808,589)"/>
<path d="M0 0 C5.9297233 4.20596652 9.70876648 9.07386796 11.15625 16.26953125 C11.89120312 23.55344166 10.70376787 30.44668372 6.375 36.4375 C1.52776233 41.67747761 -2.92876681 45.05209484 -10.1953125 45.6484375 C-19.13913709 45.96524873 -25.24192573 43.59057821 -31.82421875 37.51953125 C-36.43531085 32.18826858 -38.32250399 25.57644401 -37.94140625 18.59375 C-36.79469228 10.77910663 -33.09484885 5.04530657 -26.984375 0.11328125 C-19.14866871 -4.74144982 -7.89503001 -4.40845239 0 0 Z " fill="#000" transform="translate(843.625,530.5625)"/>
</svg>
